
<svg width="280" height="280" viewBox="0 0 280 280" fill="none" xmlns="http://www.w3.org/2000/svg">
<rect width="280" height="280" rx="34" fill="black"/>
<path d="M188.48 111.44C178.5 109.39 164.57 108.05 151.09 106.75C138.94 105.58 127.47 104.48 119.21 102.93C101.29 99.26 97.61 92.84 97.61 84.32C97.61 69.97 113.88 61.75 142.25 61.75C177.59 61.75 194.99 71.87 197 93.6L197.09 94.59H215.75L215.67 93.42C213.42 61.96 188.85 46 142.65 46C102.75 46 78.93 60.62 78.93 85.12C78.93 103.55 88.79 113.8 110.92 118.37C121.73 120.55 135.17 121.79 148.17 123C159.94 124.09 171.05 125.12 179.39 126.75C197.44 130.28 200.98 136.34 200.98 145.62C200.98 167.02 173.59 171.52 150.62 171.52C112.09 171.52 93.22 160.39 91.22 136.49L91.14 135.49H72.48L72.56 136.66C74.88 170.24 100.97 187.27 150.1 187.27C194.4 187.27 219.8 171.7 219.8 144.56C219.8 126.05 210.14 115.84 188.48 111.45V111.44Z" fill="white"/>
<path d="M219.8 214.25H78.9399V233.19H219.8V214.25Z" fill="#3552D8"/>
<path d="M60 195.31V214.25H78.94V195.31H60Z" fill="#C1BDB2"/>
</svg>