<?xml version="1.0" encoding="UTF-8"?>
<svg xmlns="http://www.w3.org/2000/svg" xmlns:xlink="http://www.w3.org/1999/xlink" viewBox="0 0 380 380">
  <defs>
    <style>
      .cls-1 {
        isolation: isolate;
      }

      .cls-1, .cls-2 {
        fill: none;
      }

      .cls-3 {
        fill: #f53224;
      }

      .cls-4 {
        fill: #f5accc;
      }

      .cls-5, .cls-6 {
        fill: #f1f1f1;
      }

      .cls-7 {
        fill: #efecea;
      }

      .cls-8 {
        fill: #ff79aa;
      }

      .cls-9 {
        fill: #8045fc;
      }

      .cls-10 {
        fill: #dadbdc;
      }

      .cls-11 {
        fill: #c6cce7;
      }

      .cls-12 {
        fill: #dccef9;
      }

      .cls-13 {
        fill: #2e3191;
      }

      .cls-14 {
        fill: #4f3382;
        opacity: .2;
      }

      .cls-14, .cls-6 {
        mix-blend-mode: multiply;
      }

      .cls-15 {
        fill: #fff;
        opacity: .2;
      }

      .cls-2 {
        clip-path: url(#clippath);
      }
    </style>
    <clipPath id="clippath">
      <circle class="cls-9" cx="190" cy="190" r="190"/>
    </clipPath>
  </defs>
  <g class="cls-1">
    <g id="Layer_2" data-name="Layer 2">
      <g id="Layer_1-2" data-name="Layer 1">
        <g>
          <circle class="cls-9" cx="190" cy="190" r="190"/>
          <g class="cls-2">
            <g>
              <rect class="cls-8" x="81.9" y="93.67" width="8.12" height="66.31" rx=".61" ry=".61"/>
              <path class="cls-7" d="m80.81,246.84c-7.36.49-13.4-5.72-12.72-13.06,2.77-30.11,11.95-99.82,38.33-117.11,41.54-27.22,130.36-37.96,190.52,2.15,0,0,34.58,26.94,40.84,102.05.51,6.1-4.07,11.43-10.18,11.83l-246.8,14.13Z"/>
              <path class="cls-10" d="m334.01,201.01l1.06,18.68s1.53,9.43-6.84,10.5c-8.37,1.08-59.22,3.94-59.22,3.94,0,0,70.55-2.51,65-33.13Z"/>
              <path class="cls-6" d="m107.14,117.39s.87,2.86,10.82,0c9.95-2.86,13.93-11.02,13.93-11.02l-9.7-13.25s-1.34-4.94-9.27,0c-7.92,4.94-12.14,8.39-10.39,11.68,1.75,3.29,4.61,12.6,4.61,12.6Z"/>
              <path class="cls-5" d="m106.42,116.68s.87,2.86,10.82,0c9.95-2.86,13.93-11.02,13.93-11.02l-8.27-13.25s-2.78-4.94-10.7,0c-7.92,4.94-12.14,8.39-10.39,11.68,1.75,3.29,4.61,12.6,4.61,12.6Z"/>
              <ellipse class="cls-6" cx="110.49" cy="97.26" rx="7.89" ry="2.15" transform="translate(-35.35 77.34) rotate(-33.58)"/>
              <path class="cls-6" d="m146.67,116.16s-28.9,1.48-37.57,20.73c-8.67,19.25-23.12,69.6-10.84,80.7,12.28,11.11,31.79,11.11,33.95,11.11s108.21-8.66,122.81-10.7c15.89-2.22,34.68-8.88,33.23-25.17-1.44-16.29-5.84-72.23-42.29-76.67-36.45-4.44-82.69-3.7-99.3,0Z"/>
              <path class="cls-10" d="m144.87,115.44s-29.26,1.48-38.04,20.73c-8.78,19.25-23.41,69.6-10.97,80.7,12.44,11.11,32.19,11.11,34.39,11.11s109.59-8.66,124.37-10.7c16.1-2.22,35.12-8.88,33.65-25.17-1.46-16.29-5.91-72.23-42.83-76.67-36.92-4.44-83.74-3.7-100.56,0Z"/>
              <path class="cls-12" d="m145.81,117.39s-28.65,1.43-37.24,20.05c-8.59,18.62-22.92,67.33-10.74,78.07,12.18,10.74,31.51,10.74,33.66,10.74s107.29-8.77,121.76-10.74c15.76-2.15,34.38-8.59,32.95-24.35-1.43-15.76-5.79-69.48-41.93-73.77-36.14-4.3-81.98-3.58-98.45,0Z"/>
              <path class="cls-13" d="m124.41,162.15h0c-.99,0-1.78-.8-1.78-1.79,0-.15.21-15.4,18.26-15.4,6.05,0,10.76,1.64,13.99,4.88,4.21,4.22,4.26,9.58,4.26,9.81,0,.99-.8,1.79-1.79,1.79h0c-.99,0-1.79-.8-1.79-1.79,0-.45-.27-11.1-14.67-11.1s-14.68,11.34-14.68,11.83c0,.98-.81,1.78-1.79,1.78Z"/>
              <path class="cls-13" d="m211.79,162.15h0c-.99,0-1.78-.8-1.78-1.79,0-.15.21-15.4,18.26-15.4,6.05,0,10.76,1.64,13.99,4.88,4.21,4.22,4.26,9.58,4.26,9.81,0,.99-.8,1.79-1.79,1.79h0c-.99,0-1.79-.8-1.79-1.79,0-.45-.27-11.1-14.67-11.1s-14.68,11.34-14.68,11.83c0,.98-.81,1.78-1.79,1.78Z"/>
              <path class="cls-13" d="m184.56,197.75c-9.32,0-13.8-3.96-15.92-7.27-2.31-3.62-2.33-7.26-2.33-7.41,0-.99.8-1.79,1.79-1.79h0c.99,0,1.79.8,1.79,1.79,0,.45.27,11.1,14.67,11.1s14.68-11.34,14.68-11.83c0-.98.81-1.78,1.79-1.78h0c.99,0,1.78.8,1.78,1.79,0,.15-.21,15.4-18.26,15.4Z"/>
              <ellipse class="cls-11" cx="111.21" cy="97.26" rx="7.89" ry="2.15" transform="translate(-35.23 77.73) rotate(-33.58)"/>
              <path class="cls-6" d="m311.8,144.17s-2.95-.53-4.91,9.64c-1.96,10.17,3.5,17.41,3.5,17.41l15.56-1.36s5.66-.23,4.86-9.53c-.8-9.3-1.97-14.62-5.69-14.56-3.72.07-13.32-1.6-13.32-1.6Z"/>
              <path class="cls-5" d="m312.77,143.86s-2.95-.53-4.91,9.64c-1.96,10.17,3.5,17.41,3.5,17.41l15.56-1.36s5.66-.23,4.86-9.53c-.8-9.3-1.97-14.62-5.69-14.56-3.72.07-13.32-1.6-13.32-1.6Z"/>
              <ellipse class="cls-6" cx="328.23" cy="156.3" rx="2.15" ry="7.89" transform="translate(-15.77 38.69) rotate(-6.59)"/>
              <ellipse class="cls-4" cx="327.9" cy="156.94" rx="2.15" ry="7.89" transform="translate(-15.84 38.66) rotate(-6.59)"/>
              <path class="cls-6" d="m318.97,178.55s-2.95-.53-4.91,9.64c-1.96,10.17,3.5,17.41,3.5,17.41l15.56-1.36s5.66-.23,4.86-9.53c-.8-9.3-1.97-14.62-5.69-14.56-3.72.07-13.32-1.6-13.32-1.6Z"/>
              <path class="cls-5" d="m319.93,178.24s-2.95-.53-4.91,9.64c-1.96,10.17,3.5,17.41,3.5,17.41l15.56-1.36s5.66-.23,4.86-9.53c-.8-9.3-1.97-14.62-5.69-14.56-3.72.07-13.32-1.6-13.32-1.6Z"/>
              <ellipse class="cls-6" cx="335.39" cy="190.68" rx="2.15" ry="7.89" transform="translate(-19.66 39.74) rotate(-6.59)"/>
              <ellipse class="cls-4" cx="335.06" cy="191.32" rx="2.15" ry="7.89" transform="translate(-19.74 39.71) rotate(-6.59)"/>
              <g>
                <path class="cls-12" d="m106.42,166.1s3.18,51.48,63.19,52.96c0,0-51,16-67.48-6.66-16.48-22.66,4.29-46.29,4.29-46.29Z"/>
                <path class="cls-15" d="m106.42,166.1s3.18,51.48,63.19,52.96c0,0-51,16-67.48-6.66-16.48-22.66,4.29-46.29,4.29-46.29Z"/>
              </g>
              <path class="cls-14" d="m228.34,217.27s50.09-22.32,40.86-81.63c0,0,23.78,52.75,7.68,67.7-10.03,9.31-48.55,13.93-48.55,13.93Z"/>
              <path class="cls-6" d="m123.78,113.63s8.5-3.83,2.73-15.43l4.65,7.46s-3.97,6.73-7.39,7.98Z"/>
              <path class="cls-6" d="m307.86,161s-.59,9.3,12.36,9.64l-8.77.63s-4.09-6.66-3.6-10.26Z"/>
              <path class="cls-6" d="m315.03,195.38s-.59,9.3,12.36,9.64l-8.77.63s-4.09-6.66-3.6-10.26Z"/>
              <rect class="cls-3" x="309.85" y="85.27" width="8.12" height="66.31" rx=".61" ry=".61" transform="translate(-11.51 36.8) rotate(-6.59)"/>
            </g>
            <rect class="cls-7" x="100.99" y="246.63" width="204.17" height="137.64" rx="5.88" ry="5.88"/>
            <path class="cls-10" d="m133.28,246.63h139.98s30-1.43,27.31,26.38c-1.55,16.02-93.56-21.23-167.29-26.38Z"/>
          </g>
        </g>
      </g>
    </g>
  </g>
</svg>