<?xml version="1.0" encoding="UTF-8"?>
<svg xmlns="http://www.w3.org/2000/svg" xmlns:xlink="http://www.w3.org/1999/xlink" viewBox="0 0 391.77 391.77">
  <defs>
    <style>
      .cls-1 {
        isolation: isolate;
      }

      .cls-1, .cls-2, .cls-3 {
        fill: none;
      }

      .cls-4 {
        fill: #f53224;
      }

      .cls-5 {
        fill: #f5accc;
      }

      .cls-6, .cls-7 {
        fill: #f1f1f1;
      }

      .cls-8 {
        fill: #efecea;
      }

      .cls-9 {
        fill: #ff79aa;
      }

      .cls-10 {
        fill: #dadbdc;
      }

      .cls-11 {
        fill: #c6cce7;
      }

      .cls-12 {
        fill: #dccef9;
      }

      .cls-13 {
        fill: #2e3191;
      }

      .cls-14 {
        fill: #4f3382;
        opacity: .2;
      }

      .cls-14, .cls-7 {
        mix-blend-mode: multiply;
      }

      .cls-2 {
        stroke: #fff;
        stroke-miterlimit: 10;
        stroke-width: 10px;
      }

      .cls-15 {
        fill: #fff;
        opacity: .2;
      }

      .cls-3 {
        clip-path: url(#clippath);
      }
    </style>
    <clipPath id="clippath">
      <circle class="cls-2" cx="195.89" cy="195.89" r="190.89"/>
    </clipPath>
  </defs>
  <g class="cls-1">
    <g id="Layer_2" data-name="Layer 2">
      <g id="Layer_1-2" data-name="Layer 1">
        <g>
          <g class="cls-3">
            <g>
              <rect class="cls-9" x="87.29" y="99.11" width="8.16" height="66.62" rx=".61" ry=".61"/>
              <path class="cls-8" d="m86.19,252.99c-7.39.49-13.46-5.74-12.78-13.12,2.79-30.25,12.01-100.29,38.51-117.65,41.74-27.34,130.96-38.14,191.41,2.16,0,0,34.74,27.07,41.03,102.53.51,6.12-4.09,11.49-10.22,11.89l-247.95,14.2Z"/>
              <path class="cls-10" d="m340.56,206.95l1.06,18.77s1.54,9.47-6.87,10.55c-8.41,1.08-59.5,3.96-59.5,3.96,0,0,70.88-2.52,65.3-33.28Z"/>
              <path class="cls-7" d="m112.64,122.94s.87,2.88,10.87,0c10-2.88,13.99-11.07,13.99-11.07l-9.75-13.31s-1.35-4.96-9.31,0c-7.96,4.96-12.2,8.43-10.44,11.73,1.76,3.3,4.64,12.66,4.64,12.66Z"/>
              <path class="cls-6" d="m111.92,122.22s.87,2.88,10.87,0c10-2.88,13.99-11.07,13.99-11.07l-8.31-13.31s-2.79-4.96-10.75,0c-7.96,4.96-12.2,8.43-10.44,11.73,1.76,3.3,4.64,12.66,4.64,12.66Z"/>
              <ellipse class="cls-7" cx="116.01" cy="102.71" rx="7.93" ry="2.16" transform="translate(-37.45 81.3) rotate(-33.58)"/>
              <path class="cls-7" d="m152.36,121.7s-29.03,1.49-37.74,20.83c-8.71,19.34-23.23,69.92-10.89,81.08,12.34,11.16,31.93,11.16,34.11,11.16s108.72-8.7,123.38-10.75c15.97-2.23,34.84-8.93,33.39-25.29-1.45-16.36-5.87-72.56-42.49-77.03-36.62-4.46-83.07-3.72-99.77,0Z"/>
              <path class="cls-10" d="m150.55,120.98s-29.4,1.49-38.22,20.83c-8.82,19.34-23.52,69.92-11.03,81.08,12.5,11.16,32.34,11.16,34.55,11.16s110.1-8.7,124.95-10.75c16.17-2.23,35.28-8.93,33.81-25.29-1.47-16.36-5.94-72.56-43.03-77.03-37.09-4.46-84.13-3.72-101.03,0Z"/>
              <path class="cls-12" d="m151.49,122.94s-28.78,1.44-37.42,20.15c-8.64,18.71-23.03,67.64-10.79,78.43,12.23,10.79,31.66,10.79,33.82,10.79s107.79-8.81,122.33-10.79c15.83-2.16,34.54-8.64,33.1-24.47-1.44-15.83-5.82-69.8-42.13-74.12-36.31-4.32-82.36-3.6-98.91,0Z"/>
              <path class="cls-13" d="m129.99,167.91h0c-.99,0-1.79-.8-1.79-1.8,0-.15.21-15.47,18.35-15.47,6.08,0,10.81,1.65,14.06,4.9,4.23,4.24,4.28,9.63,4.28,9.86,0,.99-.81,1.8-1.8,1.8h0c-.99,0-1.8-.81-1.8-1.8,0-.45-.27-11.15-14.74-11.15s-14.75,11.4-14.75,11.88c0,.99-.81,1.79-1.8,1.79Z"/>
              <path class="cls-13" d="m217.78,167.91h0c-.99,0-1.79-.8-1.79-1.8,0-.15.21-15.47,18.35-15.47,6.08,0,10.81,1.65,14.06,4.9,4.23,4.24,4.28,9.63,4.28,9.86,0,.99-.81,1.8-1.8,1.8h0c-.99,0-1.8-.81-1.8-1.8,0-.45-.27-11.15-14.74-11.15s-14.75,11.4-14.75,11.88c0,.99-.81,1.79-1.8,1.79Z"/>
              <path class="cls-13" d="m190.42,203.67c-9.36,0-13.86-3.97-15.99-7.31-2.32-3.64-2.35-7.29-2.35-7.45,0-.99.81-1.8,1.8-1.8h0c.99,0,1.8.81,1.8,1.8,0,.45.27,11.15,14.74,11.15s14.75-11.4,14.75-11.88c0-.99.81-1.79,1.8-1.79h0c.99,0,1.79.8,1.79,1.8,0,.15-.21,15.47-18.35,15.47Z"/>
              <ellipse class="cls-11" cx="116.72" cy="102.71" rx="7.93" ry="2.16" transform="translate(-37.33 81.7) rotate(-33.58)"/>
              <path class="cls-7" d="m318.26,149.85s-2.96-.53-4.93,9.69c-1.97,10.21,3.52,17.49,3.52,17.49l15.64-1.36s5.68-.23,4.88-9.58c-.81-9.34-1.98-14.69-5.72-14.62-3.74.07-13.38-1.61-13.38-1.61Z"/>
              <path class="cls-6" d="m319.23,149.53s-2.96-.53-4.93,9.69c-1.97,10.21,3.52,17.49,3.52,17.49l15.64-1.36s5.68-.23,4.88-9.58c-.81-9.34-1.98-14.69-5.72-14.62-3.74.07-13.38-1.61-13.38-1.61Z"/>
              <ellipse class="cls-7" cx="334.76" cy="162.03" rx="2.16" ry="7.93" transform="translate(-16.38 39.48) rotate(-6.59)"/>
              <ellipse class="cls-5" cx="334.43" cy="162.67" rx="2.16" ry="7.93" transform="translate(-16.46 39.45) rotate(-6.59)"/>
              <path class="cls-7" d="m325.45,184.39s-2.96-.53-4.93,9.69c-1.97,10.21,3.52,17.49,3.52,17.49l15.64-1.36s5.68-.23,4.88-9.58c-.81-9.34-1.98-14.69-5.72-14.62-3.74.07-13.38-1.61-13.38-1.61Z"/>
              <path class="cls-6" d="m326.42,184.07s-2.96-.53-4.93,9.69c-1.97,10.21,3.52,17.49,3.52,17.49l15.64-1.36s5.68-.23,4.88-9.58c-.81-9.34-1.98-14.69-5.72-14.62-3.74.07-13.38-1.61-13.38-1.61Z"/>
              <ellipse class="cls-7" cx="341.95" cy="196.57" rx="2.16" ry="7.93" transform="translate(-20.3 40.53) rotate(-6.59)"/>
              <ellipse class="cls-5" cx="341.63" cy="197.21" rx="2.16" ry="7.93" transform="translate(-20.37 40.5) rotate(-6.59)"/>
              <g>
                <path class="cls-12" d="m111.92,171.87s3.2,51.72,63.48,53.2c0,0-51.24,16.07-67.79-6.69-16.56-22.76,4.31-46.51,4.31-46.51Z"/>
                <path class="cls-15" d="m111.92,171.87s3.2,51.72,63.48,53.2c0,0-51.24,16.07-67.79-6.69-16.56-22.76,4.31-46.51,4.31-46.51Z"/>
              </g>
              <path class="cls-14" d="m234.41,223.29s50.33-22.43,41.06-82.01c0,0,23.89,53,7.72,68.02-10.07,9.35-48.77,14-48.77,14Z"/>
              <path class="cls-7" d="m129.36,119.16s8.54-3.85,2.74-15.51l4.68,7.49s-3.99,6.76-7.42,8.02Z"/>
              <path class="cls-7" d="m314.3,166.75s-.59,9.35,12.42,9.68l-8.81.63s-4.1-6.69-3.61-10.31Z"/>
              <path class="cls-7" d="m321.5,201.29s-.59,9.35,12.42,9.68l-8.81.63s-4.1-6.69-3.61-10.31Z"/>
              <rect class="cls-4" x="316.29" y="90.67" width="8.16" height="66.62" rx=".61" ry=".61" transform="translate(-12.11 37.58) rotate(-6.59)"/>
            </g>
            <rect class="cls-8" x="106.46" y="252.78" width="205.12" height="138.28" rx="5.88" ry="5.88"/>
            <path class="cls-10" d="m138.9,252.78h140.63s30.14-1.44,27.44,26.5c-1.55,16.1-94-21.33-168.07-26.5Z"/>
          </g>
          <circle class="cls-2" cx="195.89" cy="195.89" r="190.89"/>
        </g>
      </g>
    </g>
  </g>
</svg>