<!DOCTYPE svg PUBLIC "-//W3C//DTD SVG 1.1//EN" "http://www.w3.org/Graphics/SVG/1.1/DTD/svg11.dtd">
<!-- Uploaded to: SVG Repo, www.svgrepo.com, Transformed by: SVG Repo Mixer Tools -->
<svg width="800px" height="800px" viewBox="-204.8 -204.8 1433.60 1433.60" class="icon" version="1.1" xmlns="http://www.w3.org/2000/svg" fill="" stroke="">
<g id="SVGRepo_bgCarrier" stroke-width="0"/>
<g id="SVGRepo_tracerCarrier" stroke-linecap="round" stroke-linejoin="round"/>
<g id="SVGRepo_iconCarrier">
<path d="M694.59 511.92c-121.21 0-219.47 98.26-219.47 219.47s98.26 219.47 219.47 219.47 219.47-98.26 219.47-219.47-98.26-219.47-219.47-219.47z m0 365.79c-80.69 0-146.33-65.64-146.33-146.33 0-80.69 65.64-146.33 146.33-146.33 80.68 0 146.33 65.64 146.33 146.33 0 80.69-65.65 146.33-146.33 146.33z" fill="#ff79aa"/>
<path d="M679.15 753.5l-58.41-51.62-36.32 41.1 99.84 88.27L806.9 690.14l-41.39-36zM200.01 814.55c-23.52-39.54-24.45-87.29-2.48-127.71L411.7 292.57h127.24l101.25 184.96 64.14-35.11-82.03-149.85h35.02v-73.14h-33.38l69.95-146.29H255.02l76.33 146.29H291.6v73.14h36.84l-195.2 359.34c-34.39 63.34-32.93 138.11 3.91 200.04s101.86 98.91 173.91 98.91H437.7v-73.14H311.06c-46.02-0.01-87.53-23.61-111.05-63.17z m175.68-668.26h202.14l-34.98 73.14H413.86l-38.17-73.14z" fill="#ff79aa"/>
</g>
</svg>