<!DOCTYPE svg PUBLIC "-//W3C//DTD SVG 1.1//EN" "http://www.w3.org/Graphics/SVG/1.1/DTD/svg11.dtd">
<!-- Uploaded to: SVG Repo, www.svgrepo.com, Transformed by: SVG Repo Mixer Tools -->
<svg fill="#ff79aa" height="800px" width="800px" version="1.1" id="Layer_1" xmlns="http://www.w3.org/2000/svg" xmlns:xlink="http://www.w3.org/1999/xlink" viewBox="-153.6 -153.6 819.20 819.20" xml:space="preserve" stroke="#ff79aa" stroke-width="7.68006">
<g id="SVGRepo_bgCarrier" stroke-width="0"/>
<g id="SVGRepo_tracerCarrier" stroke-linecap="round" stroke-linejoin="round"/>
<g id="SVGRepo_iconCarrier"> <g> <g> <g> <path d="M349.869,273.069c4.719,0,8.533-3.823,8.533-8.533c0-4.702,3.823-8.533,8.533-8.533s8.533,3.831,8.533,8.533 c0,4.71,3.814,8.533,8.533,8.533c4.719,0,8.533-3.823,8.533-8.533c0-14.114-11.486-25.6-25.6-25.6s-25.6,11.486-25.6,25.6 C341.336,269.246,345.15,273.069,349.869,273.069z"/> <path d="M332.802,204.802c4.71,0,8.533,3.831,8.533,8.533c0,4.71,3.814,8.533,8.533,8.533s8.533-3.823,8.533-8.533 c0-14.114-11.486-25.6-25.6-25.6c-14.114,0-25.6,11.486-25.6,25.6c0,4.71,3.814,8.533,8.533,8.533s8.533-3.823,8.533-8.533 C324.269,208.634,328.092,204.802,332.802,204.802z"/> <path d="M230.402,238.935c-14.114,0-25.6,11.486-25.6,25.6c0,4.71,3.814,8.533,8.533,8.533c4.719,0,8.533-3.823,8.533-8.533 c0-4.702,3.823-8.533,8.533-8.533s8.533,3.831,8.533,8.533c0,4.71,3.814,8.533,8.533,8.533s8.533-3.823,8.533-8.533 C256.002,250.421,244.516,238.935,230.402,238.935z"/> <path d="M281.602,273.069c4.719,0,8.533-3.823,8.533-8.533c0-4.702,3.823-8.533,8.533-8.533s8.533,3.831,8.533,8.533 c0,4.71,3.814,8.533,8.533,8.533s8.533-3.823,8.533-8.533c0-14.114-11.486-25.6-25.6-25.6s-25.6,11.486-25.6,25.6 C273.069,269.246,276.883,273.069,281.602,273.069z"/> <path d="M264.535,204.802c4.71,0,8.533,3.831,8.533,8.533c0,4.71,3.814,8.533,8.533,8.533c4.719,0,8.533-3.823,8.533-8.533 c0-14.114-11.486-25.6-25.6-25.6s-25.6,11.486-25.6,25.6c0,4.71,3.814,8.533,8.533,8.533s8.533-3.823,8.533-8.533 C256.002,208.634,259.825,204.802,264.535,204.802z"/> <path d="M42.669,102.402c17.792,0,33.485-9.114,42.667-22.929c9.182,13.815,24.875,22.929,42.667,22.929 s33.485-9.114,42.667-22.929c9.182,13.815,24.875,22.929,42.667,22.929s33.485-9.114,42.667-22.929 c9.182,13.815,24.875,22.929,42.667,22.929s33.485-9.114,42.667-22.929c9.182,13.815,24.875,22.929,42.667,22.929 s33.485-9.114,42.667-22.929c9.182,13.815,24.875,22.929,42.667,22.929c16.222,0,31.164-7.561,40.977-20.736 c1.741-2.33,2.167-5.385,1.143-8.098l-25.6-68.036c-1.254-3.328-4.437-5.53-7.987-5.53H34.136c-3.55,0-6.733,2.202-7.987,5.53 l-25.6,68.036c-1.024,2.714-0.597,5.769,1.143,8.098C11.505,94.842,26.447,102.402,42.669,102.402z M40.041,17.069h431.923 l21.76,57.83c-6.426,6.682-15.095,10.436-24.388,10.436c-18.825,0-34.133-15.309-34.133-34.133c0-4.71-3.814-8.533-8.533-8.533 s-8.533,3.823-8.533,8.533c0,18.825-15.309,34.133-34.133,34.133c-18.825,0-34.133-15.309-34.133-34.133 c0-4.71-3.814-8.533-8.533-8.533c-4.719,0-8.533,3.823-8.533,8.533c0,18.825-15.309,34.133-34.133,34.133 s-34.133-15.309-34.133-34.133c0-4.71-3.814-8.533-8.533-8.533s-8.533,3.823-8.533,8.533c0,18.825-15.309,34.133-34.133,34.133 c-18.825,0-34.133-15.309-34.133-34.133c0-4.71-3.814-8.533-8.533-8.533s-8.533,3.823-8.533,8.533 c0,18.825-15.309,34.133-34.133,34.133S93.869,70.027,93.869,51.202c0-4.71-3.814-8.533-8.533-8.533s-8.533,3.823-8.533,8.533 c0,18.825-15.309,34.133-34.133,34.133c-9.293,0-17.963-3.755-24.388-10.436L40.041,17.069z"/> <path d="M332.802,460.802h-25.6v-42.667c0-4.71-3.814-8.533-8.533-8.533s-8.533,3.823-8.533,8.533v51.2 c0,4.71,3.814,8.533,8.533,8.533h34.133c9.574,0,19.584,7.799,23.672,17.067H155.531c4.087-9.267,14.097-17.067,23.671-17.067 h85.333c4.719,0,8.533-3.823,8.533-8.533s-3.814-8.533-8.533-8.533h-42.667v-42.667c0-4.71-3.814-8.533-8.533-8.533 c-4.719,0-8.533,3.823-8.533,8.533v42.667h-25.6c-21.931,0-42.667,20.736-42.667,42.667c0,4.71,3.814,8.533,8.533,8.533h221.867 c4.719,0,8.533-3.823,8.533-8.533C375.469,481.538,354.733,460.802,332.802,460.802z"/> <path d="M503.469,110.935c-4.719,0-8.533,3.823-8.533,8.533v230.4c0,14.592-11.008,25.6-25.6,25.6H42.669 c-14.592,0-25.6-11.008-25.6-25.6v-42.667h452.267c4.719,0,8.533-3.823,8.533-8.533s-3.814-8.533-8.533-8.533H8.535 c-4.719,0-8.533,3.823-8.533,8.533v51.2c0,23.927,18.739,42.667,42.667,42.667h426.667c23.927,0,42.667-18.739,42.667-42.667 v-230.4C512.002,114.758,508.188,110.935,503.469,110.935z"/> <path d="M401.069,204.802c4.71,0,8.533,3.831,8.533,8.533c0,4.71,3.814,8.533,8.533,8.533s8.533-3.823,8.533-8.533 c0-14.114-11.486-25.6-25.6-25.6c-14.114,0-25.6,11.486-25.6,25.6c0,4.71,3.814,8.533,8.533,8.533 c4.719,0,8.533-3.823,8.533-8.533C392.535,208.634,396.358,204.802,401.069,204.802z"/> <path d="M0.002,119.469v145.067c0,4.71,3.814,8.533,8.533,8.533s8.533-3.823,8.533-8.533V119.469c0-4.71-3.814-8.533-8.533-8.533 S0.002,114.758,0.002,119.469z"/> <path d="M238.935,341.336c0,9.412,7.654,17.067,17.067,17.067c9.412,0,17.067-7.654,17.067-17.067 c0-9.412-7.654-17.067-17.067-17.067C246.59,324.269,238.935,331.923,238.935,341.336z"/> <path d="M418.135,273.069c4.719,0,8.533-3.823,8.533-8.533c0-4.702,3.823-8.533,8.533-8.533s8.533,3.831,8.533,8.533 c0,4.71,3.814,8.533,8.533,8.533c4.719,0,8.533-3.823,8.533-8.533c0-14.114-11.486-25.6-25.6-25.6s-25.6,11.486-25.6,25.6 C409.602,269.246,413.417,273.069,418.135,273.069z"/> <path d="M102.402,230.402v34.133c0,4.71,3.814,8.533,8.533,8.533s8.533-3.823,8.533-8.533v-34.133 c0-4.71-3.814-8.533-8.533-8.533S102.402,225.692,102.402,230.402z"/> <path d="M143.857,272.983c0.41,0.06,0.819,0.085,1.22,0.085c4.181,0,7.834-3.072,8.439-7.322l8.533-59.733 c0.247-1.724-0.043-3.473-0.811-5.026c-1.118-2.227-12.006-21.786-50.304-21.786s-49.186,19.558-50.304,21.786 c-0.768,1.553-1.058,3.302-0.811,5.026l8.533,59.733c0.666,4.659,4.949,7.902,9.66,7.236c4.659-0.666,7.902-4.992,7.236-9.66 l-8.047-56.337c3.166-3.49,12.314-10.718,33.732-10.718c21.538,0,30.669,7.305,33.741,10.684l-8.055,56.371 C135.955,267.992,139.198,272.318,143.857,272.983z"/> </g> </g> </g> </g>
</svg>