<!DOCTYPE svg PUBLIC "-//W3C//DTD SVG 1.1//EN" "http://www.w3.org/Graphics/SVG/1.1/DTD/svg11.dtd">
<!-- Uploaded to: SVG Repo, www.svgrepo.com, Transformed by: SVG Repo Mixer Tools -->
<svg width="800px" height="800px" viewBox="-102.4 -102.4 716.80 716.80" xmlns="http://www.w3.org/2000/svg" fill="#2b43b0" stroke="#2b43b0" stroke-width="15.36">
<g id="SVGRepo_bgCarrier" stroke-width="0"/>
<g id="SVGRepo_tracerCarrier" stroke-linecap="round" stroke-linejoin="round"/>
<g id="SVGRepo_iconCarrier"> <path fill="var(--ci-primary-color, #2b43b0)" d="M425.706,86.294A240,240,0,0,0,86.294,425.706,240,240,0,0,0,425.706,86.294Zm-80.04,236.745a111.781,111.781,0,0,0,0-134.078l68.218-68.218a207.579,207.579,0,0,1,0,270.514ZM176,256a80,80,0,1,1,80,80A80.091,80.091,0,0,1,176,256ZM391.257,98.116l-68.218,68.218a111.781,111.781,0,0,0-134.078,0L120.743,98.116a207.579,207.579,0,0,1,270.514,0ZM98.116,120.743l68.218,68.218a111.781,111.781,0,0,0,0,134.078L98.116,391.257a207.579,207.579,0,0,1,0-270.514Zm22.627,293.141,68.218-68.218a111.781,111.781,0,0,0,134.078,0l68.218,68.218a207.579,207.579,0,0,1-270.514,0Z" class="ci-primary"/> </g>
</svg>