<!DOCTYPE svg PUBLIC "-//W3C//DTD SVG 1.1//EN" "http://www.w3.org/Graphics/SVG/1.1/DTD/svg11.dtd">
<!-- Uploaded to: SVG Repo, www.svgrepo.com, Transformed by: SVG Repo Mixer Tools -->
<svg fill="#FF79AA" height="800px" width="800px" version="1.1" id="Layer_1" xmlns="http://www.w3.org/2000/svg" xmlns:xlink="http://www.w3.org/1999/xlink" viewBox="-76.8 -76.8 665.60 665.60" xml:space="preserve" stroke="#FF79AA">
<g id="SVGRepo_bgCarrier" stroke-width="0"/>
<g id="SVGRepo_tracerCarrier" stroke-linecap="round" stroke-linejoin="round"/>
<g id="SVGRepo_iconCarrier"> <g> <g> <path d="M256,0C114.842,0,0,114.84,0,256s114.842,256,256,256s256-114.84,256-256S397.158,0,256,0z M256,436.479 c-99.515,0-180.477-80.962-180.477-180.479c0-93.192,70.999-170.11,161.746-179.51V43.707h37.463V76.49 c90.746,9.4,161.746,86.318,161.746,179.51C436.478,355.517,355.515,436.479,256,436.479z"/> </g> </g> <g> <g> <path d="M274.732,114.212v111.46h-37.463v-111.46C167.229,123.416,112.986,183.49,112.986,256 c0,78.859,64.156,143.015,143.014,143.015S399.014,334.859,399.014,256C399.014,183.49,344.771,123.416,274.732,114.212z"/> </g> </g> </g>
</svg>