<?xml version="1.0" encoding="UTF-8"?>
<svg id="Layer_2" data-name="Layer 2" xmlns="http://www.w3.org/2000/svg" xmlns:xlink="http://www.w3.org/1999/xlink" viewBox="0 0 115.5 120">
  <defs>
    <style>
      .cls-1, .cls-2 {
        fill: none;
      }

      .cls-3 {
        clip-path: url(#clippath);
      }

      .cls-2 {
        stroke: #ffaceb;
        stroke-miterlimit: 10;
        stroke-width: 1.64px;
      }

      .cls-4 {
        fill: #fff;
      }

      .cls-5 {
        fill: #ffaceb;
      }

      .cls-6 {
        fill: #8045fc;
      }

      .cls-7 {
        fill: #4f3381;
      }
    </style>
    <clipPath id="clippath">
      <path class="cls-1" d="m67.22,42.17h-16.04c-.75,0-1.36-.61-1.36-1.36v-.2c0-.75.61-14.94,1.36-14.94h16.04c.75,0,1.36,14.19,1.36,14.94v.2c0,.75-.61,1.36-1.36,1.36Z"/>
    </clipPath>
  </defs>
  <g id="Layer_1-2" data-name="Layer 1">
    <g>
      <rect id="Rectangle_498-2" data-name="Rectangle 498-2" class="cls-4" x="0" width="115.5" height="120" rx="33" ry="33"/>
      <g>
        <path class="cls-2" d="m89.34,59.83c-.1-1.33.3-2.7,1.23-3.79,1.62-1.89,4.3-2.34,6.4-1.22.79.42,1.32,1.24,1.27,2.14-.03.59-.29,1.22-1.12,1.63-.03.01-.05.03-.08.04-1.85.86-3.84-.93-3.17-2.86.7-2.01,2.3-3.36,4.04-3.22,1.43.12,2.85.94,3.65,2.34"/>
        <path class="cls-6" d="m51.41,18.86c-2.78.44-4.68,3.05-4.23,5.83s3.05,4.68,5.83,4.23c2.78-.44,4.68-3.05,4.23-5.83-.44-2.78-3.05-4.68-5.83-4.23Z"/>
        <g>
          <ellipse class="cls-5" cx="58.58" cy="63.23" rx="33.59" ry="27.45"/>
          <path class="cls-5" d="m19.31,55.28h9.28v14.88h-9.28c-.54,0-.98-.44-.98-.98v-12.92c0-.54.44-.98.98-.98Z"/>
          <g>
            <path class="cls-5" d="m38.19,80.42h10.26v14.32c0,.31-.25.56-.56.56h-9.15c-.31,0-.56-.25-.56-.56v-14.32h0Z"/>
            <path class="cls-5" d="m68.71,80.42h10.26v14.32c0,.31-.25.56-.56.56h-9.15c-.31,0-.56-.25-.56-.56v-14.32h0Z"/>
          </g>
          <rect class="cls-7" x="49.82" y="39.26" width="18.76" height="2.91" rx="1.36" ry="1.36"/>
          <path class="cls-5" d="m34.9,54.52s-4.42-20.04.43-21.77c4.86-1.73,11.16,13.09,11.16,13.09l-11.6,8.68Z"/>
        </g>
        <path class="cls-6" d="m65.96,25.54c-2.64-1.07-5.65.21-6.72,2.85-1.07,2.64.21,5.65,2.85,6.72,2.64,1.07,5.65-.21,6.72-2.85,1.07-2.64-.21-5.65-2.85-6.72Z"/>
        <circle class="cls-7" cx="37.28" cy="56.44" r="2.71"/>
      </g>
      <g class="cls-3">
        <path class="cls-6" d="m61.01,33.4c-2.64-1.07-5.65.21-6.72,2.85-1.07,2.64.21,5.65,2.85,6.72,2.64,1.07,5.65-.21,6.72-2.85,1.07-2.64-.21-5.65-2.85-6.72Z"/>
      </g>
    </g>
  </g>
</svg>