<?xml version="1.0" encoding="UTF-8"?>
<svg id="Layer_2" data-name="Layer 2" xmlns="http://www.w3.org/2000/svg" viewBox="0 0 115.5 120">
  <defs>
    <style>
      .cls-1 {
        fill: #fff;
      }

      .cls-2 {
        fill: #ffe900;
      }

      .cls-3 {
        fill: #ffaceb;
      }

      .cls-4 {
        fill: #4f3381;
      }
    </style>
  </defs>
  <g id="Layer_1-2" data-name="Layer 1">
    <g>
      <rect id="Rectangle_498-2" data-name="Rectangle 498-2" class="cls-1" x="0" width="115.5" height="120" rx="33" ry="33"/>
      <g>
        <path class="cls-4" d="m75.14,69.05c0,14.58-11.82,26.4-26.4,26.4s-26.4-11.82-26.4-26.4,11.82-26.4,26.4-26.4,26.4,11.82,26.4,26.4"/>
        <path class="cls-3" d="m83.66,16.05l-48.32,18.16c-2.14.81-3.23,3.2-2.42,5.34l12.31,32.71c.81,2.14,3.2,3.23,5.34,2.42l48.32-18.16c2.14-.81,3.23-3.2,2.42-5.34l-12.31-32.71c-.81-2.14-3.2-3.23-5.34-2.42"/>
        <path class="cls-2" d="m53.55,43.81l-7.96,3c-1.05.4-1.58,1.57-1.19,2.62l1.71,4.55c.4,1.05,1.57,1.58,2.62,1.19l7.96-3c1.05-.4,1.58-1.57,1.19-2.62l-1.71-4.55c-.4-1.05-1.57-1.58-2.62-1.19"/>
      </g>
    </g>
  </g>
</svg>